<?xml version="1.0" encoding="utf-8"?>
<!-- Generator: Adobe Illustrator 21.1.0, SVG Export Plug-In . SVG Version: 6.00 Build 0)  -->
<svg version="1.1" id="Camada_1" xmlns="http://www.w3.org/2000/svg" xmlns:xlink="http://www.w3.org/1999/xlink" x="0px" y="0px"
	 viewBox="0 0 50 50" style="enable-background:new 0 0 50 50;" xml:space="preserve">
<style type="text/css">
	.st0{fill:#662985;}
	.st1{fill:none;stroke:#662985;stroke-width:1.3;stroke-linecap:round;stroke-linejoin:round;stroke-miterlimit:10;}
</style>
<g id="Camada_2">
	<g>
		<path class="st0" d="M43.6,18.7L43.6,18.7v-0.1v-0.1l0,0c0-0.1,0-0.2-0.1-0.2l0,0c0-0.1-0.1-0.1-0.1-0.2c0,0,0,0-0.1,0l-0.1-0.1
			l0,0c0,0,0,0-0.1,0c0,0,0,0-0.1,0l-24.7-3.5c-0.5,0-0.8,0.2-0.8,0.7s0.2,0.8,0.7,0.8l23.8,3.1l-4,10.4H20.1l-6.8-18.2l0,0
			c-0.2-0.4-0.5-0.6-0.8-0.6H7.1c-0.5,0-0.7,0.4-0.7,0.7V14c0,0.5,0.4,0.7,0.7,0.7c0.5,0,0.7-0.4,0.7-0.7v-1.9h4l6.8,18.2
			c0,0.1,0.1,0.2,0.4,0.4c0,0,0.1,0,0.1,0.1l0,0c0.1,0,0.2,0,0.2,0h19l0,0c0.1,0,0.1,0,0.2,0l0,0c0.2-0.1,0.4-0.2,0.5-0.5l4.4-11.6
			C43.6,18.7,43.6,18.7,43.6,18.7L43.6,18.7z"/>
		<circle class="st1" cx="24" cy="35.7" r="3"/>
		<circle class="st1" cx="33.9" cy="35.7" r="3"/>
	</g>
</g>
</svg>
