<?xml version="1.0" encoding="utf-8"?>
<!-- Generator: Adobe Illustrator 21.1.0, SVG Export Plug-In . SVG Version: 6.00 Build 0)  -->
<svg version="1.1" xmlns="http://www.w3.org/2000/svg" xmlns:xlink="http://www.w3.org/1999/xlink" x="0px" y="0px"
	 viewBox="0 0 144 72" style="enable-background:new 0 0 144 72;" xml:space="preserve">
<style type="text/css">
	.st0{fill:none;stroke:#343434;stroke-width:2;stroke-linecap:round;stroke-linejoin:round;stroke-miterlimit:10;}
	.st1{fill:#343434;}
	.st2{fill:none;stroke:#343434;stroke-width:1.3;stroke-linecap:round;stroke-linejoin:round;stroke-miterlimit:10;}
</style>
<g id="Layer_1">
	<g transform="translate(92, 20)">
		<line class="st0" x1="27" y1="5" x2="5" y2="27"/>
		<line class="st0" x1="27" y1="27" x2="5" y2="5"/>
	</g>
</g>
<g id="Camada_2">
	<g>
		<path class="st1" d="M50.5,30.7C50.5,30.7,50.5,30.7,50.5,30.7c0,0,0-0.1,0-0.1c0,0,0-0.1,0-0.1c0,0,0,0,0,0c0-0.1,0-0.2-0.1-0.2
			c0,0,0,0,0,0c0-0.1-0.1-0.1-0.1-0.2c0,0,0,0-0.1,0c0,0-0.1-0.1-0.1-0.1c0,0,0,0,0,0c0,0,0,0-0.1,0c0,0,0,0-0.1,0l-20.6-2.9
			c-0.4,0-0.7,0.2-0.7,0.6s0.2,0.7,0.6,0.7L49,31l-3.3,8.7H30.9l-5.7-15.2c0,0,0,0,0,0C25,24.2,24.8,24,24.5,24h-4.4
			c-0.4,0-0.6,0.3-0.6,0.6v2.2c0,0.4,0.3,0.6,0.6,0.6c0.4,0,0.6-0.3,0.6-0.6v-1.6h3.3l5.7,15.2c0,0.1,0.1,0.2,0.3,0.3
			c0,0,0.1,0,0.1,0.1c0,0,0,0,0,0c0.1,0,0.2,0,0.2,0h15.8c0,0,0,0,0,0c0.1,0,0.1,0,0.2,0c0,0,0,0,0,0c0.2-0.1,0.3-0.2,0.4-0.4
			l3.7-9.7C50.5,30.7,50.5,30.7,50.5,30.7L50.5,30.7z"/>
		<circle class="st2" cx="34.2" cy="44.9" r="2.5"/>
		<circle class="st2" cx="42.4" cy="44.9" r="2.5"/>
	</g>
</g>
</svg>
