<?xml version="1.0" encoding="utf-8"?>
<!-- Generator: Adobe Illustrator 21.1.0, SVG Export Plug-In . SVG Version: 6.00 Build 0)  -->
<svg version="1.1" id="Camada_1" xmlns="http://www.w3.org/2000/svg" xmlns:xlink="http://www.w3.org/1999/xlink" x="0px" y="0px"
	 viewBox="0 0 32 32" style="enable-background:new 0 0 32 32;" xml:space="preserve">
<style type="text/css">
	.st0{fill:#FFFFFF;}
</style>
<g>
	<path class="st0" d="M25.7,12c-0.1-0.1-0.2-0.2-0.4-0.2h-5.4V9c0-0.3-0.2-0.5-0.5-0.5H3.5C3.2,8.6,3,8.8,3,9V21
		c0,0.3,0.2,0.5,0.5,0.5H5c0.2,1.1,1.2,2,2.4,2c1.2,0,2.2-0.8,2.4-2h1.6c0.3,0,0.5-0.2,0.5-0.5c0-0.3-0.2-0.5-0.5-0.5H9.8
		c-0.2-1.1-1.2-2-2.4-2c-1.2,0-2.2,0.8-2.4,2H4v-11h14.9v2.7v8.3h-5.7c-0.3,0-0.5,0.2-0.5,0.5c0,0.3,0.2,0.5,0.5,0.5h6.2h1
		c0.2,1.1,1.2,2,2.4,2s2.2-0.8,2.4-2h3.3c0.3,0,0.5-0.2,0.5-0.5v-4c0-0.1,0-0.2-0.1-0.3L25.7,12z M7.4,19.5c0.8,0,1.5,0.7,1.5,1.5
		c0,0.8-0.7,1.5-1.5,1.5c-0.8,0-1.5-0.7-1.5-1.5C5.9,20.2,6.6,19.5,7.4,19.5z M22.8,22.5c-0.8,0-1.5-0.7-1.5-1.5
		c0-0.8,0.7-1.5,1.5-1.5c0.8,0,1.5,0.7,1.5,1.5C24.3,21.8,23.6,22.5,22.8,22.5z M28,20.5h-2.8c-0.2-1.1-1.2-2-2.4-2s-2.2,0.8-2.4,2
		h-0.5v-7.8H25l3,4.4V20.5z"/>
	<path class="st0" d="M24.4,13.6h-3.1c-0.3,0-0.5,0.2-0.5,0.5v2.6c0,0.3,0.2,0.5,0.5,0.5l4.9,0c0.2,0,0.3-0.1,0.4-0.3
		c0.1-0.2,0.1-0.4,0-0.5l-1.8-2.6C24.7,13.7,24.5,13.6,24.4,13.6z M21.7,16.2v-1.7h2.4l1.1,1.7H21.7z"/>
</g>
</svg>
