<?xml version="1.0" encoding="utf-8"?>
<!-- Generator: Adobe Illustrator 21.1.0, SVG Export Plug-In . SVG Version: 6.00 Build 0)  -->
<svg version="1.1" id="Camada_1" xmlns="http://www.w3.org/2000/svg" xmlns:xlink="http://www.w3.org/1999/xlink" x="0px" y="0px"
	 viewBox="0 0 255.1 255.1" style="enable-background:new 0 0 255.1 255.1;" xml:space="preserve">
<style type="text/css">
	.st0{fill:#662985;}
</style>
<g>
	<path class="st0" d="M265.6,83.5c10.6-1.8,21.5-1.8,32,0.2c23.3,5,23.6,22.7,19.9,42.4c-3.1,14.2-7.6,29.3-19.3,38.8
		c-11.1,8.8-26.1,9.8-39.7,9.6c-8.3-0.5-17.2-1.7-24.1-6.9c-13-9.7-8.9-31.6-5.2-45.2C234.4,103.4,244.3,86.6,265.6,83.5L265.6,83.5
		z M258.4,110.5c-4.1,7.5-5.8,15.9-7.8,24.1c-1,5-2.6,10.8,0.4,15.5c2.6,3.9,7.7,4.5,12,4.9c6.2,0.3,12.9,0.2,18.4-3.2
		c5.2-3.6,7.3-10,9.1-15.7c2.1-7.6,4.7-15.2,4.9-23.1c0.3-9.6-8.1-11.3-15.8-11.4C271.2,101.4,262.7,102.2,258.4,110.5L258.4,110.5z
		 M-135.6,83.8h7.1c1.7,0,2.7,1.4,2.2,3l-19.1,70.2c-3.9,13.3-15.9,15.8-27,15.7c-9.8-0.1-14.5-2.6-16.9-9.3
		c-1.1-3.1-1.6-6.6-1.9-10.2v0l0,0c-0.1-1.2-0.2-2.5-0.2-3.7c-0.9-14.5-1.7-28.9-2.5-43.5c0-0.4-0.1-0.9-0.2-1.3
		c-0.2-0.6-0.6-0.8-1.5-0.8c-1,0-2.1,0.2-2.4,1.4l-14.1,51.7c-1.2,4.2-2.2,8.7-5.3,11.9c-2.9,2.9-7.2,3.7-11.2,3.7h-7.1
		c-1.7,0-2.7-1.4-2.2-3l19.1-70.2c3.9-13.3,15.9-15.8,27-15.7c9.8,0.1,14.5,2.6,16.9,9.3c1.1,3.1,1.6,6.6,1.9,10.2v0l0,0
		c0.1,1.2,0.2,2.5,0.2,3.7c0.9,14.5,1.7,29,2.5,43.5c0,0.4,0.1,0.9,0.2,1.3c0.2,0.6,0.6,0.8,1.5,0.8c1,0,2.1-0.2,2.4-1.4l14.1-51.7
		c1.2-4.2,2.2-8.7,5.3-11.9C-143.9,84.7-139.6,83.9-135.6,83.8L-135.6,83.8z M-137.1,169.7l15.3-56.4c2.2-7.9,4.1-16.3,9.8-22.5
		c5.3-5.4,13.1-6.9,20.4-7h46.2c1.7,0,2.7,1.4,2.2,3l-0.2,0.7c-1.2,4.2-2.2,8.7-5.3,11.9c-2.9,2.9-7.2,3.7-11.2,3.7h-28.1
		c-2.9,0-6,0.6-8.1,2.7c-2.3,2.4-3,5.6-3.8,8.7l-0.8,3.1h40.1c1.7,0,2.7,1.4,2.2,3l-0.2,0.7c-1.2,4.2-2.2,8.7-5.3,11.9
		c-2.9,2.9-7.2,3.7-11.2,3.7h-22.1c-2.9,0-6,0.6-8.1,2.7c-2.3,2.4-3,5.6-3.8,8.7l-1.3,4.8H-60c1.7,0,2.7,1.4,2.2,3l-0.2,0.7
		c-1.2,4.2-2.2,8.7-5.3,11.9c-2.9,2.9-7.2,3.7-11.2,3.7h-60.4C-136.5,172.7-137.5,171.4-137.1,169.7L-137.1,169.7z M316,169.7
		l15.3-56.4c2.2-7.9,4.1-16.3,9.8-22.5c5.3-5.4,13.1-6.9,20.4-7h46.2c1.7,0,2.7,1.4,2.2,3l-0.2,0.7c-1.2,4.2-2.2,8.7-5.3,11.9
		c-2.9,2.9-7.2,3.7-11.2,3.7h-28.1c-2.9,0-6,0.6-8.1,2.7c-2.3,2.4-3,5.6-3.8,8.7l-0.8,3.1h40.1c1.7,0,2.7,1.4,2.2,3l-0.2,0.7
		c-1.2,4.2-2.2,8.7-5.3,11.9c-2.9,2.9-7.2,3.7-11.2,3.7H356c-2.9,0-6,0.6-8.1,2.7c-2.3,2.4-3,5.6-3.8,8.7l-1.3,4.8h50.3
		c1.7,0,2.7,1.4,2.2,3l-0.2,0.7c-1.2,4.2-2.2,8.7-5.3,11.9c-2.9,2.9-7.2,3.7-11.2,3.7h-60.4C316.5,172.7,315.5,171.4,316,169.7
		L316,169.7z M48.7,83.8H-23c-4,0-8.3,0.9-11.2,3.7c-3.1,3.3-4.1,7.8-5.3,11.9l-0.2,0.7c-0.5,1.7,0.5,3,2.2,3h27
		c1.7,0,2.7,1.4,2.2,3l-17.2,63.4c-0.5,1.7,0.5,3,2.2,3h7.1c4,0,8.3-0.9,11.2-3.7c3.1-3.3,4.1-7.8,5.3-11.9l10.4-38.1
		c1.2-4.2,2.2-8.7,5.3-11.9c2.9-2.9,7.2-3.7,11.2-3.7h7c4,0,8.3-0.9,11.2-3.7c3.1-3.3,4.1-7.8,5.3-11.9l0.2-0.7
		C51.3,85.2,50.3,83.8,48.7,83.8L48.7,83.8z M121.7,169.7c-0.5,1.7,0.5,3,2.2,3h7.1c4,0,8.3-0.9,11.2-3.7c3.1-3.3,4.1-7.8,5.3-11.9
		l1.5-5.4c1.2-4.2,2.2-8.7,5.3-11.9c2.9-2.9,7.2-3.7,11.2-3.7h24.8c1.7,0,2.7,1.4,2.2,3l-8.3,30.6c-0.5,1.7,0.5,3,2.2,3h7.1
		c4,0,8.3-0.9,11.2-3.7c3.1-3.3,4.1-7.8,5.3-11.9c6.4-23.4,12.7-46.8,19.1-70.2c0.5-1.7-0.5-3-2.2-3h-7.1c-4,0-8.3,0.9-11.2,3.7
		c-3.1,3.3-4.1,7.8-5.3,11.9l-0.4,1.4c-1.2,4.2-2.2,8.7-5.3,11.9c-2.9,2.9-7.2,3.7-11.2,3.7h-24.8c-1.7,0-2.7-1.4-2.2-3l7.3-26.7
		c0.5-1.7-0.5-3-2.2-3h-7.1c-4,0-8.3,0.9-11.2,3.7c-3.1,3.3-4.1,7.8-5.3,11.9C134.4,122.9,128,146.3,121.7,169.7L121.7,169.7z
		 M90.1,172.7H38.7c-1.7,0-2.7-1.4-2.2-3l0.2-0.7c1.2-4.2,2.2-8.7,5.3-11.9c2.9-2.9,7.2-3.7,11.2-3.7h34.7h2.8
		c1.2,0,2.6-0.3,3.5-1.2c0.9-1,1.3-2.5,1-3.9c-0.3-1-1.1-1.7-1.9-2.2c-0.2-0.1-0.4-0.2-0.5-0.3c-8.2-5.1-16.6-10.2-24.8-15.4
		c-1.1-0.7-2.2-1.4-3.2-2.1c-5-3.2-9.8-7.5-11.6-13.4c-1.8-8.3,0.7-17.3,6.3-23.7c5.3-5.8,13.6-7.1,21.1-7.3h48.9
		c1.7,0,2.7,1.4,2.2,3l-0.2,0.7c-1.2,4.2-2.2,8.7-5.3,11.9c-2.9,2.9-7.2,3.7-11.2,3.7H80.3c-1.2,0-2.6,0.3-3.5,1.2
		c-0.9,1-1.3,2.5-1,3.9c0.3,1,1.1,1.7,1.9,2.2c8.2,5.3,16.8,10.4,25.1,15.6c1.1,0.7,2.2,1.4,3.2,2.1c5,3.2,9.8,7.5,11.6,13.4
		c1.8,8.3-0.7,17.4-6.3,23.7C105.9,171.2,97.6,172.5,90.1,172.7L90.1,172.7z M452.3,172.7h-51.5c-1.7,0-2.7-1.4-2.2-3l0.2-0.7
		c1.2-4.2,2.2-8.7,5.3-11.9c2.9-2.9,7.2-3.7,11.2-3.7H450h2.8c1.2,0,2.6-0.3,3.5-1.2c0.9-1,1.3-2.5,1-3.9c-0.3-1-1.1-1.7-1.9-2.2
		c-0.2-0.1-0.4-0.2-0.5-0.3c-8.2-5.1-16.6-10.2-24.8-15.4c-1.1-0.7-2.2-1.4-3.2-2.1c-5-3.2-9.8-7.5-11.6-13.4
		c-1.8-8.3,0.7-17.3,6.3-23.7c5.3-5.8,13.6-7.1,21.1-7.3h48.9c1.7,0,2.7,1.4,2.2,3l-0.2,0.7c-1.2,4.2-2.2,8.7-5.3,11.9
		c-2.9,2.9-7.2,3.7-11.2,3.7h-34.7c-1.2,0-2.6,0.3-3.5,1.2c-0.9,1-1.3,2.5-1,3.9c0.3,1,1.1,1.7,1.9,2.2c8.2,5.3,16.8,10.4,25.1,15.6
		c1.1,0.7,2.2,1.4,3.2,2.1c5,3.2,9.8,7.5,11.6,13.4c1.8,8.3-0.7,17.4-6.3,23.7C468.1,171.2,459.8,172.5,452.3,172.7L452.3,172.7z"/>
</g>
</svg>
